<?xml version="1.0"?>
<!--Icons from directory ""-->
<svg xmlns="http://www.w3.org/2000/svg" width="46" height="243" viewBox="0 0 46 243"><svg xmlns:xlink="http://www.w3.org/1999/xlink" height="37" width="31" preserveAspectRatio="xMidYMid" viewBox="0 0 31 37" id="icon-create" y="0"><defs><style>.icon-create-1 {        fill: #ffffff;      }      .icon-create-2 {        fill: #27abff;      }</style></defs><g id="icon-create-createsvg" fill-rule="evenodd"><path id="icon-create-path-1" class="icon-create-1" d="m30.063 10.272c-0.188-0.294-0.375-0.535-0.563-0.723l-8.196-8.196c-0.188-0.188-0.429-0.375-0.723-0.563v9.482h9.482zm-12.054-10.285h-16.071c-0.536 0-0.991 0.187-1.366 0.562s-0.563 0.831-0.563 1.366v32.143c0 0.536 0.188 0.991 0.563 1.366s0.83 0.563 1.366 0.563h27c0.535 0 0.991-0.188 1.366-0.563s0.562-0.83 0.562-1.366v-21.214h-10.928c-0.536 0-0.991-0.188-1.366-0.563s-0.563-0.83-0.563-1.366v-10.928z"/><path id="icon-create-path-2" class="icon-create-2" d="m11.438 27.844v-1h-1v-0.836l0.711-0.711 1.836 1.836-0.711 0.711h-0.836zm4.867-7.117l-4.234 4.234c-0.037 0.036-0.081 0.055-0.133 0.055-0.115 0-0.172-0.058-0.172-0.172 0-0.052 0.018-0.097 0.055-0.133l4.234-4.234c0.036-0.037 0.081-0.055 0.133-0.055 0.114 0 0.172 0.057 0.172 0.172 0 0.052-0.019 0.096-0.055 0.133zm-6.867 4.867v3.25h3.25l6.5-6.5-3.25-3.25-6.5 6.5zm11.547-6.461l-1.836-1.828c-0.198-0.198-0.435-0.297-0.711-0.297-0.282 0-0.516 0.099-0.703 0.297l-1.297 1.289 3.25 3.25 1.297-1.297c0.192-0.193 0.289-0.427 0.289-0.703 0-0.271-0.097-0.508-0.289-0.711z"/></g></svg><svg xmlns:xlink="http://www.w3.org/1999/xlink" height="31" width="34" preserveAspectRatio="xMidYMid" viewBox="0 0 34 31" id="icon-cup" y="37"><defs><style>.icon-cup-3 {        fill: #ffffff;      }      .icon-cup-4 {        fill: #f36523;      }</style></defs><g id="icon-cup-icon-cupsvg" fill-rule="evenodd"><path d="m4.475 12.893c-1.266-1.125-1.899-2.21-1.899-3.255v-1.928h5.143c0 2.799 0.495 5.283 1.487 7.453-1.889-0.388-3.466-1.145-4.731-2.27zm24.489 0c-1.266 1.125-2.843 1.882-4.731 2.27 0.991-2.17 1.486-4.654 1.486-7.453h5.143v1.928c0 1.045-0.633 2.13-1.898 3.255zm3.907-7.192c-0.375-0.375-0.831-0.563-1.366-0.563h-5.786v-1.928c0-0.884-0.315-1.641-0.944-2.27-0.63-0.63-1.386-0.944-2.27-0.944h-11.572c-0.883 0-1.64 0.314-2.27 0.944-0.629 0.629-0.944 1.386-0.944 2.27v1.928h-5.786c-0.535 0-0.991 0.188-1.366 0.563s-0.562 0.83-0.562 1.366v2.571c0 0.951 0.278 1.909 0.834 2.873 0.555 0.964 1.305 1.835 2.25 2.612 0.944 0.777 2.102 1.43 3.475 1.958 1.373 0.53 2.816 0.828 4.329 0.894 0.563 0.724 1.199 1.36 1.909 1.909 0.509 0.455 0.86 0.941 1.054 1.456 0.194 0.516 0.292 1.115 0.292 1.798 0 0.724-0.205 1.333-0.613 1.829-0.409 0.495-1.062 0.743-1.959 0.743-1.004 0-1.898 0.305-2.682 0.914-0.783 0.609-1.175 1.376-1.175 2.3v1.286c0 0.187 0.06 0.341 0.181 0.462 0.121 0.12 0.274 0.181 0.462 0.181h16.714c0.188 0 0.342-0.061 0.462-0.181 0.121-0.121 0.181-0.275 0.181-0.462v-1.286c0-0.924-0.392-1.691-1.175-2.3-0.784-0.609-1.678-0.914-2.682-0.914-0.897 0-1.55-0.248-1.959-0.743-0.408-0.496-0.612-1.105-0.612-1.829 0-0.683 0.097-1.282 0.291-1.798 0.194-0.515 0.545-1.001 1.055-1.456 0.709-0.549 1.346-1.185 1.908-1.909 1.513-0.066 2.956-0.364 4.329-0.894 1.373-0.528 2.532-1.181 3.476-1.958s1.694-1.648 2.25-2.612c0.555-0.964 0.833-1.922 0.833-2.873v-2.571c0-0.536-0.187-0.991-0.562-1.366z" class="icon-cup-3"/><path d="m22.781 8.977s-3.921-0.571-3.921-0.571l-1.758-3.554c-0.099-0.214-0.227-0.321-0.383-0.321s-0.284 0.107-0.383 0.321l-1.758 3.554-3.922 0.571c-0.291 0.046-0.437 0.166-0.437 0.359 0 0.109 0.065 0.234 0.195 0.375l2.844 2.766-0.672 3.906c-0.01 0.073-0.015 0.125-0.015 0.156 0 0.109 0.027 0.202 0.082 0.277 0.054 0.076 0.136 0.114 0.246 0.114 0.093 0 0.198-0.032 0.312-0.094l3.508-1.844 3.508 1.844c0.109 0.062 0.213 0.094 0.312 0.094 0.104 0 0.184-0.038 0.239-0.114 0.054-0.075 0.082-0.168 0.082-0.277 0-0.068-0.003-0.12-0.008-0.156l-0.672-3.906 2.836-2.766c0.135-0.135 0.203-0.26 0.203-0.375 0-0.193-0.146-0.313-0.438-0.359z" class="icon-cup-4"/></g></svg><svg xmlns:xlink="http://www.w3.org/1999/xlink" height="17" width="9" preserveAspectRatio="xMidYMid" viewBox="0 0 9 17" id="icon-fb" y="68"><path fill-rule="evenodd" d="m8.66 0.136c-0.271-0.04-1.205-0.12-2.289-0.12-2.269 0-3.826 1.385-3.826 3.925v2.189h-2.56v2.972h2.56v7.621h3.073v-7.621h2.55l0.392-2.972h-2.942v-1.897c0-0.854 0.231-1.446 1.466-1.446h1.576v-2.651z" fill="#fff"/></svg><svg xmlns:xlink="http://www.w3.org/1999/xlink" height="17" width="17" preserveAspectRatio="xMidYMid" viewBox="0 0 17 17" id="icon-gp" y="85"><path fill-rule="evenodd" d="m7.067 8.008c0-1.275 2.38-1.567 2.38-4.167 0-1.265-0.573-2.149-1.506-2.942h1.315s1.385-0.883 1.385-0.883h-4.196c-1.396 0-2.932 0.371-4.017 1.305-0.833 0.723-1.355 1.807-1.355 2.912 0 1.997 1.566 3.423 3.524 3.423 0.231 0 0.452-0.02 0.683-0.04-0.121 0.281-0.211 0.532-0.211 0.853 0 0.603 0.281 1.015 0.633 1.477-1.356 0.09-2.882 0.27-4.057 1.003-0.933 0.583-1.636 1.527-1.636 2.661 0 0.462 0.13 0.924 0.371 1.315 0.834 1.406 2.691 1.798 4.197 1.798 1.918 0 4.076-0.623 5.111-2.38 0.301-0.522 0.482-1.124 0.482-1.737 0-2.831-3.103-3.273-3.103-4.598zm-1.466-0.964c-1.807 0-2.66-2.37-2.66-3.876 0-0.562 0.11-1.154 0.471-1.606 0.342-0.442 0.924-0.723 1.486-0.723 1.808 0 2.681 2.52 2.681 4.006 0 0.592-0.12 1.155-0.532 1.596-0.351 0.362-0.944 0.603-1.446 0.603zm0.02 8.765c-1.626 0-3.745-0.703-3.745-2.661 0-2.068 2.43-2.59 4.067-2.59 0.16 0 0.321 0 0.482 0.02 0.973 0.703 2.319 1.526 2.319 2.882 0 1.726-1.637 2.349-3.123 2.349zm8.133-8.795v-2.179h-1.054v2.179h-2.129v1.084h2.129v2.199h1.054v-2.199h2.138v-1.084h-2.138z" fill="#fff"/></svg><svg xmlns:xlink="http://www.w3.org/1999/xlink" height="12" width="14" preserveAspectRatio="xMidYMid" viewBox="0 0 14 12" id="icon-heart" y="102"><path fill="#bbb" d="m7.344 11.859l4.867-4.687c1.193-1.193 1.789-2.365 1.789-3.516 0-1.146-0.331-2.041-0.992-2.687-0.662-0.646-1.576-0.969-2.742-0.969-0.323 0-0.653 0.056-0.989 0.168s-0.648 0.263-0.937 0.453-0.538 0.369-0.746 0.535c-0.209 0.167-0.406 0.344-0.594 0.532-0.188-0.188-0.385-0.365-0.594-0.532-0.208-0.166-0.457-0.345-0.746-0.535s-0.601-0.341-0.937-0.453-0.666-0.168-0.989-0.168c-1.166 0-2.08 0.323-2.742 0.969-0.661 0.646-0.992 1.541-0.992 2.687 0 0.349 0.061 0.709 0.184 1.078 0.122 0.37 0.261 0.685 0.418 0.946 0.156 0.26 0.333 0.514 0.531 0.761 0.198 0.248 0.342 0.418 0.433 0.512s0.163 0.162 0.215 0.203l4.875 4.703c0.094 0.094 0.209 0.141 0.344 0.141s0.25-0.047 0.344-0.141z" fill-rule="evenodd"/></svg><svg xmlns:xlink="http://www.w3.org/1999/xlink" height="31" width="31" preserveAspectRatio="xMidYMid" viewBox="0 0 31 31" id="icon-price" y="114"><path fill-rule="evenodd" d="m30.429 12.715c0.402-0.374 0.536-0.843 0.402-1.406-0.161-0.549-0.51-0.89-1.045-1.024l-3.78-0.965 1.066-3.736c0.161-0.549 0.033-1.018-0.382-1.406-0.389-0.415-0.858-0.543-1.407-0.382l-3.739 1.065-0.965-3.777c-0.134-0.549-0.476-0.891-1.026-1.025-0.549-0.147-1.018-0.02-1.407 0.382 0 0-2.714 2.792-2.714 2.792s-2.713-2.792-2.713-2.792c-0.389-0.415-0.858-0.543-1.408-0.382-0.549 0.134-0.891 0.476-1.025 1.025l-0.965 3.777-3.739-1.065c-0.549-0.161-1.018-0.033-1.407 0.382-0.415 0.388-0.543 0.857-0.382 1.406l1.066 3.736-3.78 0.965c-0.536 0.134-0.884 0.475-1.045 1.024-0.134 0.563 0 1.032 0.402 1.406l2.774 2.713-2.774 2.712c-0.402 0.375-0.536 0.843-0.402 1.406 0.161 0.549 0.509 0.891 1.045 1.024l3.78 0.965-1.066 3.736c-0.161 0.55-0.033 1.018 0.382 1.407 0.389 0.415 0.858 0.542 1.407 0.381l3.739-1.065 0.965 3.777c0.134 0.549 0.476 0.897 1.025 1.045 0.563 0.134 1.032 0 1.408-0.402 0 0 2.713-2.772 2.713-2.772s2.714 2.772 2.714 2.772c0.268 0.295 0.61 0.442 1.026 0.442 0.093 0 0.221-0.013 0.381-0.04 0.55-0.161 0.892-0.509 1.026-1.045l0.965-3.777 3.739 1.065c0.549 0.161 1.018 0.034 1.407-0.381 0.415-0.389 0.543-0.857 0.382-1.407l-1.066-3.736 3.78-0.965c0.535-0.133 0.884-0.475 1.045-1.024 0.134-0.563 0-1.031-0.402-1.406l-2.774-2.712 2.774-2.713z" fill="#f26625"/><path fill-rule="evenodd" d="m18.979 16.752c-0.067-0.229-0.149-0.428-0.246-0.597-0.096-0.169-0.234-0.335-0.414-0.496-0.18-0.162-0.342-0.292-0.485-0.391s-0.34-0.21-0.59-0.332-0.448-0.213-0.594-0.273-0.357-0.142-0.633-0.247c-0.246-0.093-0.428-0.165-0.548-0.214-0.12-0.05-0.277-0.12-0.473-0.211-0.195-0.091-0.341-0.172-0.437-0.242-0.097-0.071-0.2-0.157-0.309-0.258-0.11-0.102-0.187-0.21-0.231-0.325-0.044-0.114-0.066-0.239-0.066-0.375 0-0.354 0.156-0.643 0.469-0.867 0.312-0.224 0.716-0.336 1.211-0.336 0.219 0 0.442 0.03 0.669 0.09s0.421 0.128 0.582 0.203c0.162 0.076 0.314 0.159 0.458 0.25 0.143 0.092 0.245 0.16 0.304 0.207 0.06 0.047 0.098 0.078 0.114 0.094 0.068 0.052 0.138 0.07 0.211 0.055 0.078-0.005 0.138-0.047 0.18-0.125l0.633-1.141c0.062-0.104 0.049-0.203-0.039-0.297-0.031-0.031-0.071-0.067-0.117-0.109-0.047-0.042-0.149-0.117-0.305-0.227-0.157-0.109-0.322-0.207-0.497-0.293-0.174-0.086-0.401-0.173-0.68-0.261-0.279-0.089-0.567-0.149-0.864-0.18v-1.375c0-0.073-0.023-0.133-0.07-0.18s-0.107-0.07-0.18-0.07h-1.055c-0.068 0-0.127 0.025-0.176 0.074-0.05 0.05-0.074 0.108-0.074 0.176v1.406c-0.819 0.156-1.483 0.505-1.994 1.047s-0.766 1.172-0.766 1.891c0 0.213 0.022 0.416 0.066 0.609 0.045 0.193 0.099 0.366 0.165 0.52 0.065 0.153 0.157 0.304 0.277 0.453 0.12 0.148 0.233 0.276 0.34 0.383 0.107 0.106 0.246 0.217 0.418 0.332 0.172 0.114 0.32 0.207 0.442 0.277 0.123 0.07 0.285 0.151 0.489 0.242 0.203 0.091 0.363 0.16 0.481 0.207 0.117 0.047 0.277 0.112 0.48 0.195 0.282 0.11 0.49 0.195 0.626 0.254 0.135 0.06 0.307 0.144 0.516 0.25 0.208 0.107 0.361 0.205 0.457 0.293 0.096 0.089 0.184 0.198 0.262 0.328 0.078 0.131 0.117 0.269 0.117 0.415 0 0.411-0.16 0.729-0.481 0.953-0.32 0.224-0.691 0.336-1.114 0.336-0.193 0-0.385-0.021-0.578-0.063-0.678-0.135-1.311-0.461-1.9-0.976l-0.015-0.016c-0.047-0.057-0.11-0.081-0.188-0.07-0.083 0.01-0.143 0.041-0.18 0.093l-0.805 1.055c-0.078 0.104-0.073 0.211 0.016 0.32 0.026 0.032 0.071 0.078 0.136 0.141 0.065 0.062 0.187 0.16 0.364 0.293s0.37 0.258 0.578 0.375c0.209 0.117 0.473 0.233 0.794 0.348 0.32 0.114 0.653 0.195 0.997 0.242v1.367c0 0.068 0.024 0.126 0.074 0.176 0.049 0.049 0.108 0.074 0.176 0.074h1.055c0.073 0 0.133-0.023 0.18-0.07s0.07-0.107 0.07-0.18v-1.367c0.829-0.136 1.503-0.491 2.021-1.067 0.519-0.575 0.778-1.261 0.778-2.058 0-0.261-0.034-0.505-0.102-0.735z" fill="#fdfdfd"/></svg><svg xmlns:xlink="http://www.w3.org/1999/xlink" height="43" width="46" preserveAspectRatio="xMidYMid" viewBox="0 0 46 43" id="icon-prize" y="145"><defs><style>.icon-prize {        fill: #999999;        stroke: #f36523;        stroke-linejoin: round;        stroke-width: 1px;        fill-opacity: 0;      }</style></defs><path fill-rule="evenodd" d="m9.384 18.699c-1.406-1.25-2.109-2.456-2.109-3.616v-2.143h5.715c0 3.11 0.55 5.87 1.651 8.281-2.098-0.431-3.85-1.272-5.257-2.522zm27.212 0c-1.406 1.25-3.159 2.091-5.257 2.522 1.101-2.411 1.652-5.171 1.652-8.281h5.714v2.143c0 1.16-0.703 2.366-2.109 3.616zm4.342-7.991c-0.417-0.417-0.923-0.625-1.518-0.625h-6.429v-2.143c0-0.982-0.35-1.823-1.049-2.523-0.7-0.699-1.541-1.049-2.523-1.049h-12.858c-0.982 0-1.823 0.35-2.522 1.049-0.7 0.7-1.049 1.541-1.049 2.523v2.143h-6.429c-0.596 0-1.102 0.208-1.518 0.625-0.417 0.416-0.625 0.922-0.625 1.517v2.858c0 1.056 0.308 2.12 0.926 3.192 0.617 1.071 1.451 2.038 2.5 2.901 1.049 0.864 2.336 1.589 3.862 2.177 1.525 0.588 3.129 0.919 4.811 0.993 0.625 0.804 1.331 1.511 2.12 2.121 0.566 0.506 0.956 1.045 1.172 1.618s0.324 1.239 0.324 1.998c0 0.803-0.227 1.48-0.681 2.031s-1.18 0.826-2.176 0.826c-1.117 0-2.11 0.338-2.981 1.015-0.87 0.678-1.305 1.529-1.305 2.556v1.429c0 0.208 0.067 0.379 0.201 0.513 0.133 0.134 0.304 0.201 0.513 0.201h18.572c0.209 0 0.38-0.067 0.514-0.201s0.201-0.305 0.201-0.513v-1.429c0-1.027-0.436-1.878-1.306-2.556-0.871-0.677-1.864-1.015-2.98-1.015-0.997 0-1.723-0.275-2.177-0.826s-0.681-1.228-0.681-2.031c0-0.759 0.108-1.425 0.324-1.998s0.606-1.112 1.172-1.618c0.789-0.61 1.496-1.317 2.121-2.121 1.681-0.074 3.285-0.405 4.81-0.993 1.526-0.588 2.813-1.313 3.862-2.177 1.049-0.863 1.883-1.83 2.5-2.901 0.618-1.072 0.927-2.136 0.927-3.192v-2.858c0-0.595-0.209-1.101-0.625-1.517z" class="icon-prize"/></svg><svg xmlns:xlink="http://www.w3.org/1999/xlink" height="13" width="17" preserveAspectRatio="xMidYMid" viewBox="0 0 17 13" id="icon-tw" y="188"><path fill-rule="evenodd" d="m15.828 1.518c-0.583 0.251-1.215 0.432-1.868 0.502 0.673-0.401 1.185-1.034 1.426-1.787-0.622 0.372-1.325 0.643-2.058 0.783-0.593-0.632-1.436-1.024-2.37-1.024-1.797 0-3.243 1.456-3.243 3.243 0 0.251 0.03 0.502 0.081 0.743-2.691-0.14-5.091-1.426-6.687-3.393-0.281 0.481-0.442 1.034-0.442 1.636 0 1.125 0.572 2.119 1.446 2.701-0.532-0.02-1.034-0.171-1.466-0.412v0.041c0 1.576 1.114 2.881 2.6 3.182-0.271 0.071-0.562 0.111-0.853 0.111-0.211 0-0.412-0.02-0.613-0.051 0.412 1.286 1.607 2.219 3.033 2.25-1.115 0.873-2.511 1.385-4.027 1.385-0.271 0-0.522-0.01-0.783-0.04 1.436 0.924 3.143 1.456 4.98 1.456 5.964 0 9.227-4.94 9.227-9.227 0-0.141 0-0.281-0.01-0.422 0.633-0.462 1.185-1.034 1.627-1.677z" fill="#fff"/></svg><svg xmlns:xlink="http://www.w3.org/1999/xlink" height="42" width="45" preserveAspectRatio="xMidYMid" viewBox="0 0 45 42" id="icon-users" y="201"><defs><style>.icon-user {        fill: #27abff;        stroke: #f36523;        stroke-linejoin: round;        stroke-width: 1px;        fill-opacity: 0;      }</style></defs><path fill-rule="evenodd" d="m12.413 15.281c0-0.431 0.037-0.922 0.111-1.473-0.981 0.343-1.969 0.513-2.964 0.513-0.877 0-1.761-0.159-2.653-0.479s-1.616-0.637-2.173-0.949c-0.558-0.313-0.881-0.469-0.97-0.469-1.843 0-2.764 2.627-2.764 7.88 0 1.16 0.416 2.042 1.248 2.645 0.832 0.602 1.858 0.904 3.076 0.904h2.987c1.531-1.831 3.5-2.783 5.907-2.857-1.203-1.742-1.805-3.646-1.805-5.715zm25.6 17.623c-0.052-0.751-0.156-1.562-0.312-2.433s-0.353-1.678-0.59-2.422c-0.238-0.744-0.558-1.469-0.959-2.176s-0.862-1.31-1.382-1.808c-0.52-0.499-1.155-0.897-1.906-1.194-0.75-0.298-1.579-0.447-2.485-0.447-0.149 0-0.468 0.16-0.959 0.48-0.49 0.32-1.033 0.677-1.627 1.071-0.594 0.395-1.389 0.752-2.385 1.072s-1.999 0.48-3.009 0.48c-1.011 0-2.014-0.16-3.009-0.48-0.996-0.32-1.791-0.677-2.385-1.072-0.595-0.394-1.137-0.751-1.628-1.071-0.49-0.32-0.81-0.48-0.958-0.48-0.907 0-1.735 0.149-2.485 0.447-0.751 0.297-1.386 0.695-1.906 1.194-0.521 0.498-0.981 1.101-1.382 1.808-0.402 0.707-0.721 1.432-0.959 2.176s-0.434 1.551-0.59 2.422c-0.157 0.871-0.261 1.682-0.313 2.433-0.052 0.752-0.078 1.522-0.078 2.31 0 1.786 0.543 3.196 1.628 4.23 1.084 1.034 2.526 1.552 4.324 1.552h19.482c1.798 0 3.239-0.518 4.324-1.552s1.627-2.444 1.627-4.23c0-0.788-0.026-1.558-0.078-2.31zm-28.453-31.908c-1.576 0-2.92 0.558-4.035 1.674-1.114 1.116-1.672 2.463-1.672 4.04s0.558 2.924 1.672 4.04c1.115 1.116 2.459 1.674 4.035 1.674 1.575 0 2.92-0.558 4.034-1.674 1.115-1.116 1.672-2.463 1.672-4.04s-0.557-2.924-1.672-4.04c-1.114-1.116-2.459-1.674-4.034-1.674zm12.839 5.714c-2.363 0-4.38 0.837-6.052 2.511s-2.508 3.694-2.508 6.06 0.836 4.386 2.508 6.061c1.672 1.674 3.689 2.511 6.052 2.511s4.38-0.837 6.052-2.511c1.672-1.675 2.508-3.695 2.508-6.061s-0.836-4.386-2.508-6.06-3.689-2.511-6.052-2.511zm18.635 5.714c-0.089 0-0.413 0.156-0.97 0.469-0.557 0.312-1.282 0.629-2.173 0.949-0.892 0.32-1.776 0.479-2.653 0.479-0.995 0-1.984-0.17-2.964-0.513 0.074 0.551 0.111 1.042 0.111 1.473 0 2.069-0.602 3.973-1.805 5.715 2.407 0.074 4.376 1.026 5.907 2.857h2.986c1.219 0 2.244-0.302 3.077-0.904 0.832-0.603 1.248-1.485 1.248-2.645 0-5.253-0.922-7.88-2.764-7.88zm-5.796-11.428c-1.575 0-2.92 0.558-4.034 1.674-1.115 1.116-1.672 2.463-1.672 4.04s0.557 2.924 1.672 4.04c1.114 1.116 2.459 1.674 4.034 1.674s2.92-0.558 4.035-1.674c1.114-1.116 1.672-2.463 1.672-4.04s-0.558-2.924-1.672-4.04c-1.115-1.116-2.46-1.674-4.035-1.674z" class="icon-user"/></svg></svg>
