<?xml version="1.0"?>
<!--Icons from directory ""-->
<svg xmlns="http://www.w3.org/2000/svg" width="14" height="81" viewBox="0 0 14 81"><svg xmlns:xlink="http://www.w3.org/1999/xlink" height="17" width="10" preserveAspectRatio="xMidYMid" viewBox="0 0 10 17" id="next-arr-s" y="0"><path fill-rule="evenodd" d="m9.508 7.965s-7.735-7.801-7.735-7.801c-0.111-0.112-0.238-0.168-0.382-0.168s-0.271 0.056-0.382 0.168c0 0-0.83 0.837-0.83 0.837-0.111 0.112-0.166 0.24-0.166 0.385s0.055 0.274 0.166 0.385c0 0 6.524 6.579 6.524 6.579s-6.524 6.579-6.524 6.579c-0.111 0.112-0.166 0.241-0.166 0.386s0.055 0.273 0.166 0.385c0 0 0.83 0.837 0.83 0.837 0.111 0.111 0.238 0.167 0.382 0.167s0.271-0.056 0.382-0.167c0 0 7.735-7.802 7.735-7.802 0.111-0.111 0.166-0.24 0.166-0.385s-0.055-0.273-0.166-0.385z"/></svg><svg xmlns:xlink="http://www.w3.org/1999/xlink" height="23" width="14" preserveAspectRatio="xMidYMid" viewBox="0 0 14 23" id="next-arr" y="17"><path fill-rule="evenodd" d="m12.533 10.511l-10.208-10.295c-0.146-0.147-0.314-0.221-0.503-0.221-0.19 0-0.358 0.074-0.504 0.221l-1.095 1.105c-0.147 0.147-0.219 0.317-0.219 0.508s0.072 0.361 0.219 0.508l8.608 8.682s-8.608 8.681-8.608 8.681c-0.147 0.148-0.219 0.317-0.219 0.509 0 0.191 0.072 0.361 0.219 0.508l1.095 1.104c0.146 0.148 0.314 0.221 0.504 0.221 0.189 0 0.357-0.073 0.503-0.221l10.208-10.294c0.146-0.147 0.219-0.317 0.219-0.508 0-0.192-0.073-0.361-0.219-0.508z" fill="#fff"/></svg><svg xmlns:xlink="http://www.w3.org/1999/xlink" height="18" width="10" preserveAspectRatio="xMidYMid" viewBox="0 0 10 18" id="prev-arr-s" y="40"><path fill-rule="evenodd" d="m9.57 0.996l-0.837-0.837c-0.112-0.111-0.24-0.167-0.385-0.167s-0.274 0.056-0.385 0.167l-7.802 7.801c-0.111 0.112-0.167 0.241-0.167 0.385 0 0.146 0.056 0.274 0.167 0.385l7.802 7.802c0.111 0.112 0.24 0.167 0.385 0.167s0.273-0.055 0.385-0.167l0.837-0.837c0.111-0.112 0.167-0.24 0.167-0.385s-0.056-0.274-0.167-0.385c0 0-6.579-6.58-6.579-6.58l6.579-6.579c0.111-0.111 0.167-0.24 0.167-0.385s-0.056-0.273-0.167-0.385z"/></svg><svg xmlns:xlink="http://www.w3.org/1999/xlink" height="23" width="14" preserveAspectRatio="xMidYMid" viewBox="0 0 14 23" id="prev-arr" y="58"><path fill-rule="evenodd" d="m12.759 1.332l-1.116-1.116c-0.149-0.149-0.321-0.223-0.514-0.223s-0.365 0.074-0.513 0.223l-10.402 10.402c-0.149 0.149-0.223 0.32-0.223 0.513 0 0.194 0.074 0.365 0.223 0.514l10.402 10.401c0.148 0.149 0.32 0.224 0.513 0.224s0.365-0.075 0.514-0.224l1.116-1.116c0.148-0.148 0.223-0.32 0.223-0.513s-0.075-0.365-0.223-0.514l-8.773-8.772 8.773-8.772c0.148-0.149 0.223-0.32 0.223-0.514 0-0.193-0.075-0.364-0.223-0.513z" fill="#fff"/></svg></svg>
