<svg xmlns="http://www.w3.org/2000/svg" width="46" height="243" viewBox="0 0 46 243"><svg xmlns:xlink="http://www.w3.org/1999/xlink" height="37" width="31" preserveAspectRatio="xMidYMid" viewBox="0 0 31 37" id="icon-create"><defs><style>.icon-create-1 { fill: #ffffff; } .icon-create-2 { fill: #27abff; }</style></defs><g id="icon-create-createsvg" fill-rule="evenodd"><path id="icon-create-path-1" class="icon-create-1" d="M30.063 10.272c-.188-.294-.375-.535-.563-.723l-8.196-8.197c-.188-.188-.43-.375-.723-.563v9.482h9.483zM18.01-.013H1.937c-.536 0-.99.187-1.366.562S.01 1.38.01 1.914v32.143c0 .536.187.99.562 1.366s.83.563 1.366.563h27c.535 0 .99-.188 1.366-.563s.562-.83.562-1.366V12.844H19.938c-.536 0-.99-.188-1.366-.563s-.563-.83-.563-1.365V-.013z"/><path id="icon-create-path-2" class="icon-create-2" d="M11.438 27.844v-1h-1v-.836l.71-.71 1.837 1.835-.71.71h-.837zm4.867-7.117L12.07 24.96c-.036.037-.08.056-.132.056-.115 0-.172-.058-.172-.172 0-.052.018-.097.055-.133l4.235-4.233c.036-.037.08-.055.133-.055.114 0 .172.057.172.172 0 .052-.02.096-.055.133zm-6.867 4.867v3.25h3.25l6.5-6.5-3.25-3.25-6.5 6.5zm11.547-6.46l-1.836-1.83c-.2-.197-.436-.296-.712-.296-.282 0-.516.1-.703.297l-1.297 1.29 3.25 3.25 1.297-1.298c.192-.193.29-.427.29-.703 0-.27-.098-.508-.29-.71z"/></g></svg><svg xmlns:xlink="http://www.w3.org/1999/xlink" height="31" width="34" preserveAspectRatio="xMidYMid" viewBox="0 0 34 31" id="icon-cup" y="37"><defs><style>.icon-cup-3 { fill: #ffffff; } .icon-cup-4 { fill: #f36523; }</style></defs><g id="icon-cup-icon-cupsvg" fill-rule="evenodd"><path d="M4.475 12.893c-1.266-1.125-1.9-2.21-1.9-3.255V7.71H7.72c0 2.8.494 5.283 1.486 7.453-1.89-.388-3.466-1.145-4.73-2.27zm24.49 0c-1.267 1.125-2.844 1.882-4.732 2.27.99-2.17 1.486-4.654 1.486-7.453h5.142v1.928c0 1.045-.633 2.13-1.898 3.255zM32.87 5.7c-.374-.374-.83-.562-1.365-.562H25.72V3.21c0-.884-.316-1.64-.945-2.27-.63-.63-1.386-.944-2.27-.944H10.933c-.883 0-1.64.314-2.27.944-.63.63-.944 1.386-.944 2.27v1.928H1.932c-.535 0-.99.188-1.366.563s-.562.83-.562 1.367v2.57c0 .952.278 1.91.834 2.874.554.965 1.304 1.836 2.25 2.613.943.777 2.1 1.43 3.474 1.958 1.373.53 2.816.83 4.33.895.562.724 1.198 1.36 1.908 1.91.51.454.86.94 1.054 1.455.194.516.292 1.115.292 1.798 0 .724-.205 1.333-.613 1.83-.41.494-1.062.742-1.96.742-1.003 0-1.897.305-2.68.914-.784.61-1.176 1.376-1.176 2.3v1.286c0 .187.06.34.18.462.12.12.274.18.462.18h16.714c.188 0 .342-.06.462-.18s.18-.275.18-.462v-1.286c0-.924-.39-1.69-1.174-2.3-.784-.61-1.678-.914-2.682-.914-.897 0-1.55-.248-1.96-.743-.407-.496-.61-1.105-.61-1.83 0-.682.096-1.28.29-1.797.194-.515.545-1 1.055-1.456.71-.55 1.346-1.185 1.908-1.91 1.513-.065 2.956-.363 4.33-.893 1.372-.527 2.53-1.18 3.475-1.957s1.694-1.648 2.25-2.612c.555-.963.833-1.92.833-2.872v-2.57c0-.537-.187-.992-.562-1.367z" class="icon-cup-3"/><path d="M22.78 8.977l-3.92-.57-1.758-3.555c-.1-.214-.227-.32-.383-.32s-.285.106-.384.32l-1.758 3.554-3.922.57c-.29.047-.437.167-.437.36 0 .11.064.234.194.375l2.844 2.767-.672 3.906c-.01.073-.015.125-.015.156 0 .108.028.2.083.276.054.076.136.114.246.114.092 0 .197-.032.31-.094l3.51-1.844 3.507 1.844c.11.062.213.094.312.094.103 0 .183-.038.238-.114.054-.075.082-.168.082-.277 0-.07-.003-.12-.008-.157l-.672-3.906 2.836-2.766c.135-.134.203-.26.203-.374 0-.193-.147-.313-.44-.36z" class="icon-cup-4"/></g></svg><svg xmlns:xlink="http://www.w3.org/1999/xlink" height="17" width="9" preserveAspectRatio="xMidYMid" viewBox="0 0 9 17" id="icon-fb" y="68"><path fill-rule="evenodd" d="M8.66.136c-.27-.04-1.205-.12-2.29-.12C4.103.016 2.546 1.4 2.546 3.94v2.19h-2.56v2.972h2.56v7.62h3.073v-7.62h2.55L8.56 6.13H5.618V4.233c0-.854.23-1.446 1.466-1.446H8.66V.137z" fill="#fff"/></svg><svg xmlns:xlink="http://www.w3.org/1999/xlink" height="17" width="17" preserveAspectRatio="xMidYMid" viewBox="0 0 17 17" id="icon-gp" y="85"><path fill-rule="evenodd" d="M7.067 8.008c0-1.275 2.38-1.567 2.38-4.167 0-1.264-.573-2.148-1.506-2.94h1.316L10.64.015H6.446c-1.396 0-2.932.37-4.017 1.305-.833.724-1.355 1.808-1.355 2.913 0 1.997 1.566 3.423 3.524 3.423.23 0 .452-.02.683-.04-.12.28-.21.532-.21.853 0 .602.28 1.014.632 1.476-1.356.09-2.882.27-4.057 1.003C.712 11.53.01 12.475.01 13.61c0 .462.13.924.37 1.315.834 1.406 2.69 1.798 4.197 1.798 1.918 0 4.076-.623 5.11-2.38.302-.522.483-1.124.483-1.737 0-2.83-3.103-3.273-3.103-4.598zM5.6 7.044c-1.806 0-2.66-2.37-2.66-3.876 0-.562.11-1.154.472-1.606.342-.442.924-.723 1.486-.723 1.808 0 2.68 2.52 2.68 4.005 0 .592-.12 1.155-.53 1.596-.352.363-.945.604-1.447.604zm.02 8.765c-1.625 0-3.744-.704-3.744-2.662 0-2.068 2.43-2.59 4.067-2.59.16 0 .32 0 .482.02.973.703 2.32 1.526 2.32 2.882 0 1.726-1.638 2.35-3.124 2.35zm8.134-8.796v-2.18H12.7v2.18h-2.13v1.084h2.13v2.2h1.054v-2.2h2.138V7.014h-2.138z" fill="#fff"/></svg><svg xmlns:xlink="http://www.w3.org/1999/xlink" height="12" width="14" preserveAspectRatio="xMidYMid" viewBox="0 0 14 12" id="icon-heart" y="102"><path fill="#bbb" d="M7.344 11.86L12.21 7.17C13.405 5.98 14 4.807 14 3.656c0-1.146-.33-2.04-.992-2.687C12.346.322 11.432 0 10.266 0c-.323 0-.653.056-.99.168S8.63.43 8.34.62s-.538.37-.746.536c-.21.167-.406.344-.594.532-.188-.188-.385-.365-.594-.532C6.198.99 5.95.81 5.66.62S5.06.28 4.723.17 4.057 0 3.733 0C2.57 0 1.654.323.994.97.33 1.614 0 2.51 0 3.655c0 .35.06.71.184 1.078.122.37.26.685.418.946.156.26.333.514.53.76.2.25.343.42.434.513s.163.162.215.203l4.876 4.703c.094.093.21.14.344.14s.25-.047.344-.14z" fill-rule="evenodd"/></svg><svg xmlns:xlink="http://www.w3.org/1999/xlink" height="31" width="31" preserveAspectRatio="xMidYMid" viewBox="0 0 31 31" id="icon-price" y="114"><path fill-rule="evenodd" d="M30.43 12.715c.4-.374.535-.843.4-1.406-.16-.55-.51-.89-1.044-1.025l-3.78-.965 1.066-3.736c.16-.55.033-1.018-.382-1.406-.39-.415-.858-.543-1.407-.382l-3.74 1.065-.964-3.776c-.135-.55-.477-.89-1.027-1.025-.55-.148-1.018-.02-1.407.38l-2.714 2.793L12.72.44c-.39-.414-.86-.542-1.41-.38-.548.133-.89.475-1.024 1.024L9.32 4.86 5.583 3.797c-.55-.16-1.018-.033-1.407.382-.415.388-.543.857-.382 1.406L4.86 9.32l-3.78.965c-.537.134-.885.475-1.046 1.024-.134.562 0 1.03.402 1.405l2.774 2.713L.436 18.14c-.402.375-.536.843-.402 1.406.16.55.51.89 1.045 1.024l3.78.965-1.067 3.736c-.16.55-.033 1.02.382 1.408.39.415.858.542 1.407.38l3.74-1.064.964 3.777c.134.55.476.898 1.025 1.046.564.134 1.033 0 1.41-.402l2.712-2.772 2.714 2.772c.268.295.61.442 1.026.442.093 0 .22-.013.38-.04.55-.16.893-.51 1.027-1.045l.964-3.776 3.74 1.065c.548.16 1.017.033 1.406-.382.415-.39.543-.857.382-1.407l-1.066-3.735 3.78-.965c.535-.133.884-.475 1.045-1.024.135-.563 0-1.03-.4-1.406l-2.775-2.712 2.774-2.713z" fill="#f26625"/><path fill-rule="evenodd" d="M18.98 16.752c-.068-.23-.15-.428-.247-.597-.096-.17-.234-.335-.414-.496-.18-.163-.343-.293-.486-.392s-.34-.21-.59-.332-.448-.213-.594-.273-.357-.142-.633-.247c-.246-.093-.428-.165-.548-.214-.12-.05-.278-.12-.474-.21-.195-.092-.34-.173-.437-.243-.098-.072-.2-.158-.31-.26-.11-.1-.187-.21-.23-.324-.045-.114-.067-.24-.067-.375 0-.353.156-.642.47-.866.31-.224.715-.336 1.21-.336.22 0 .442.03.67.09s.42.128.58.203c.163.077.315.16.46.25.142.093.244.16.303.208.06.047.098.078.114.094.068.052.138.07.21.055.08-.005.14-.047.18-.125l.634-1.14c.062-.105.05-.204-.04-.298-.03-.03-.07-.067-.116-.11-.047-.04-.15-.116-.305-.226-.157-.11-.322-.207-.497-.293-.174-.086-.4-.173-.68-.26-.28-.09-.567-.15-.864-.18V8.478c0-.074-.023-.134-.07-.18s-.107-.07-.18-.07h-1.055c-.068 0-.127.024-.176.073-.05.05-.073.108-.073.176v1.405c-.82.156-1.483.505-1.994 1.047s-.766 1.172-.766 1.89c0 .214.022.417.066.61.045.193.1.366.165.52.065.153.157.304.277.453.12.148.233.276.34.383.107.106.246.217.418.332.172.114.32.207.442.277.123.07.285.15.49.242.202.09.362.16.48.206l.48.195c.282.11.49.196.626.255.136.06.308.144.517.25.208.107.36.205.457.293.096.09.184.198.262.328.078.13.117.27.117.415 0 .412-.16.73-.48.954-.32.224-.692.336-1.115.336-.193 0-.385-.02-.578-.063-.678-.135-1.31-.46-1.9-.976l-.015-.015c-.047-.057-.11-.08-.188-.07-.083.01-.143.04-.18.093l-.805 1.055c-.078.104-.073.21.016.32.026.032.07.078.136.14.065.063.187.16.364.294s.37.258.578.375c.21.117.473.233.794.348.32.114.653.195.997.242v1.367c0 .067.024.125.074.175.05.05.11.074.177.074h1.055c.073 0 .133-.024.18-.07s.07-.108.07-.18V20.61c.83-.136 1.503-.49 2.02-1.067.52-.575.78-1.26.78-2.058 0-.26-.035-.505-.103-.735z" fill="#fdfdfd"/></svg><svg xmlns:xlink="http://www.w3.org/1999/xlink" height="43" width="46" preserveAspectRatio="xMidYMid" viewBox="0 0 46 43" id="icon-prize" y="145"><defs><style>.icon-prize { fill: #999999; stroke: #f36523; stroke-linejoin: round; stroke-width: 1px; fill-opacity: 0; }</style></defs><path fill-rule="evenodd" d="M9.384 18.7c-1.406-1.25-2.11-2.457-2.11-3.617V12.94h5.716c0 3.11.55 5.87 1.65 8.28-2.097-.43-3.85-1.27-5.256-2.52zm27.212 0c-1.406 1.25-3.16 2.09-5.257 2.52 1.1-2.41 1.65-5.17 1.65-8.28h5.715v2.143c0 1.16-.703 2.366-2.11 3.616zm4.342-7.992c-.417-.417-.923-.625-1.518-.625h-6.43V7.94c0-.982-.35-1.823-1.048-2.523-.7-.7-1.54-1.05-2.523-1.05H16.56c-.98 0-1.822.35-2.52 1.05-.7.7-1.05 1.54-1.05 2.523v2.143H6.56c-.595 0-1.1.208-1.517.625-.417.416-.625.922-.625 1.517v2.858c0 1.056.308 2.12.926 3.192.617 1.07 1.45 2.038 2.5 2.9 1.05.865 2.336 1.59 3.862 2.178 1.525.588 3.13.92 4.81.993.626.804 1.332 1.51 2.12 2.12.567.507.957 1.046 1.173 1.62s.323 1.238.323 1.997c0 .803-.227 1.48-.68 2.03s-1.18.827-2.177.827c-1.117 0-2.11.338-2.98 1.015-.87.678-1.306 1.53-1.306 2.556v1.43c0 .208.067.38.2.513.134.134.305.2.514.2h18.572c.21 0 .38-.066.514-.2s.2-.305.2-.513v-1.43c0-1.026-.435-1.877-1.305-2.555-.87-.677-1.864-1.015-2.98-1.015-.997 0-1.723-.275-2.177-.826s-.68-1.228-.68-2.03c0-.76.107-1.426.323-2s.607-1.11 1.173-1.617c.79-.61 1.496-1.317 2.12-2.12 1.682-.075 3.286-.406 4.81-.994 1.527-.588 2.814-1.313 3.863-2.177 1.05-.863 1.883-1.83 2.5-2.9.618-1.073.927-2.137.927-3.193v-2.858c0-.595-.21-1.1-.625-1.517z" class="icon-prize"/></svg><svg xmlns:xlink="http://www.w3.org/1999/xlink" height="13" width="17" preserveAspectRatio="xMidYMid" viewBox="0 0 17 13" id="icon-tw" y="188"><path fill-rule="evenodd" d="M15.828 1.518c-.583.25-1.215.432-1.868.502.673-.4 1.185-1.034 1.426-1.787-.622.372-1.325.643-2.058.783-.593-.632-1.436-1.024-2.37-1.024-1.797 0-3.243 1.456-3.243 3.243 0 .25.03.502.08.743-2.69-.14-5.09-1.426-6.686-3.393C.827 1.065.666 1.62.666 2.22c0 1.126.572 2.12 1.446 2.702-.532-.02-1.034-.17-1.466-.412v.04c0 1.577 1.114 2.882 2.6 3.183-.27.07-.562.11-.853.11-.21 0-.412-.02-.613-.05.413 1.286 1.608 2.22 3.034 2.25-1.115.873-2.51 1.385-4.027 1.385-.27 0-.522-.01-.783-.04 1.436.924 3.143 1.456 4.98 1.456 5.964 0 9.227-4.94 9.227-9.227 0-.14 0-.28-.01-.422.634-.462 1.186-1.034 1.628-1.677z" fill="#fff"/></svg><svg xmlns:xlink="http://www.w3.org/1999/xlink" height="42" width="45" preserveAspectRatio="xMidYMid" viewBox="0 0 45 42" id="icon-users" y="201"><defs><style>.icon-user { fill: #27abff; stroke: #f36523; stroke-linejoin: round; stroke-width: 1px; fill-opacity: 0; }</style></defs><path fill-rule="evenodd" d="M12.413 15.28c0-.43.037-.92.11-1.472-.98.343-1.968.513-2.963.513-.877 0-1.76-.158-2.653-.478s-1.616-.637-2.173-.95c-.558-.312-.88-.468-.97-.468C1.92 12.424 1 15.05 1 20.304c0 1.16.416 2.042 1.248 2.645.832.6 1.858.903 3.076.903H8.31c1.532-1.83 3.5-2.783 5.908-2.857-1.203-1.742-1.805-3.646-1.805-5.715zm25.6 17.624c-.052-.75-.156-1.562-.312-2.433s-.352-1.677-.59-2.42c-.237-.745-.557-1.47-.958-2.177s-.862-1.31-1.382-1.808c-.52-.5-1.155-.897-1.906-1.194-.75-.297-1.58-.446-2.485-.446-.15 0-.47.16-.96.48-.49.32-1.033.677-1.627 1.07-.594.396-1.39.753-2.385 1.073s-2 .48-3.01.48c-1.01 0-2.013-.16-3.008-.48-.996-.32-1.79-.677-2.385-1.072-.595-.394-1.137-.75-1.628-1.07-.49-.32-.81-.48-.958-.48-.908 0-1.736.148-2.486.446-.75.298-1.386.696-1.906 1.195-.52.498-.98 1.1-1.382 1.808-.402.707-.72 1.432-.96 2.176s-.433 1.55-.59 2.42c-.156.872-.26 1.683-.312 2.434-.052.752-.078 1.522-.078 2.31 0 1.786.543 3.196 1.628 4.23 1.084 1.034 2.526 1.552 4.324 1.552H32.14c1.798 0 3.24-.518 4.324-1.552S38.09 37 38.09 35.214c0-.788-.025-1.558-.077-2.31zM9.56.996c-1.576 0-2.92.558-4.035 1.674C4.41 3.786 3.853 5.133 3.853 6.71s.558 2.924 1.672 4.04c1.115 1.116 2.46 1.674 4.035 1.674 1.575 0 2.92-.558 4.034-1.674 1.115-1.116 1.672-2.463 1.672-4.04s-.557-2.924-1.672-4.04C12.48 1.554 11.134.996 9.56.996zM22.4 6.71c-2.364 0-4.38.837-6.053 2.51s-2.508 3.695-2.508 6.06.835 4.387 2.507 6.062c1.672 1.674 3.69 2.51 6.052 2.51s4.38-.836 6.05-2.51c1.673-1.675 2.51-3.695 2.51-6.06s-.837-4.387-2.51-6.06S24.763 6.71 22.4 6.71zm18.634 5.714c-.09 0-.413.156-.97.47-.557.31-1.282.628-2.173.948-.89.32-1.775.48-2.652.48-.995 0-1.984-.17-2.964-.514.074.55.11 1.042.11 1.473 0 2.07-.6 3.974-1.804 5.716 2.407.074 4.376 1.026 5.907 2.857h2.986c1.22 0 2.244-.302 3.077-.904.832-.604 1.248-1.486 1.248-2.646 0-5.253-.922-7.88-2.764-7.88zM35.238.996c-1.575 0-2.92.558-4.034 1.674-1.115 1.116-1.672 2.463-1.672 4.04s.557 2.924 1.672 4.04c1.114 1.116 2.46 1.674 4.034 1.674s2.92-.558 4.035-1.674c1.114-1.116 1.672-2.463 1.672-4.04s-.558-2.924-1.672-4.04C38.158 1.554 36.813.996 35.238.996z" class="icon-user"/></svg></svg>