<svg xmlns="http://www.w3.org/2000/svg" width="14" height="81" viewBox="0 0 14 81"><svg xmlns:xlink="http://www.w3.org/1999/xlink" height="17" width="10" preserveAspectRatio="xMidYMid" viewBox="0 0 10 17"><path fill-rule="evenodd" d="M9.508 7.965L1.773.165c-.11-.113-.238-.17-.382-.17s-.27.057-.38.17L.18 1c-.112.113-.167.24-.167.386s.055.274.166.385l6.523 6.58L.18 14.93c-.112.11-.167.24-.167.385s.055.273.166.385l.83.837c.11.11.237.167.38.167s.272-.056.383-.167l7.735-7.802c.11-.11.166-.24.166-.385s-.055-.273-.166-.385z"/></svg><svg xmlns:xlink="http://www.w3.org/1999/xlink" height="23" width="14" preserveAspectRatio="xMidYMid" viewBox="0 0 14 23" y="17"><path fill-rule="evenodd" d="M12.533 10.51L2.325.217c-.146-.147-.314-.22-.503-.22-.19 0-.358.073-.504.22L.223 1.32c-.147.148-.22.318-.22.51s.073.36.22.507L8.83 11.02.224 19.7c-.147.148-.22.317-.22.51 0 .19.073.36.22.507l1.095 1.104c.146.15.314.222.504.222s.357-.073.503-.22l10.208-10.295c.146-.147.22-.317.22-.508 0-.193-.074-.362-.22-.51z" fill="#fff"/></svg><svg xmlns:xlink="http://www.w3.org/1999/xlink" height="18" width="10" preserveAspectRatio="xMidYMid" viewBox="0 0 10 18" y="40"><path fill-rule="evenodd" d="M9.57.996L8.733.16C8.62.047 8.493-.01 8.348-.01s-.274.056-.385.167L.16 7.96c-.11.112-.166.24-.166.385 0 .146.056.274.167.385l7.803 7.802c.11.112.24.167.385.167s.273-.056.385-.168l.837-.837c.11-.112.167-.24.167-.385s-.056-.274-.167-.385l-6.58-6.58 6.58-6.58c.11-.11.167-.24.167-.384S9.68 1.11 9.57.997z"/></svg><svg xmlns:xlink="http://www.w3.org/1999/xlink" height="23" width="14" preserveAspectRatio="xMidYMid" viewBox="0 0 14 23" y="58"><path fill-rule="evenodd" d="M12.76 1.332L11.642.216c-.15-.15-.32-.223-.514-.223s-.366.074-.514.223L.214 10.618c-.15.15-.223.32-.223.513 0 .195.075.366.224.515l10.402 10.4c.148.15.32.225.513.225s.364-.075.513-.224l1.116-1.116c.147-.148.222-.32.222-.513s-.075-.365-.223-.514L3.985 11.13l8.773-8.77c.147-.15.222-.32.222-.515 0-.193-.075-.364-.223-.513z" fill="#fff"/></svg></svg>